<?xml version="1.0" encoding="UTF-8"?><svg id="a" xmlns="http://www.w3.org/2000/svg" viewBox="0 0 393.36 298.34"><defs><style>.b{fill:#facebb;}.c{fill:#323332;}.d{fill:#363534;}.e{fill:#fdfdfd;}</style></defs><path class="e" d="M254.61,289.59c9.49,10.18,31.62,12.84,36.01.58,2.91-8.12-10.58-19.84-6.5-26.99,6.93-12.13,54.43,9.95,65.1-43,30.75-12.76,49.82-44.96,42.61-77.78-2.6-11.84-10.6-20.26-18.49-29.67,3.88-37.38-19.94-69.87-57.18-76.03l-20.46-17.59c-24.32-20.92-57.37-24.56-86.93-11.41-36.47-13.53-76.5-4.12-100.38,25.47-35.83,5.58-67.36,23.42-74.06,60.81C8.4,108.95-5.2,137.42,1.85,166.05c5.64,22.92,24.09,38.62,47.46,38.58l19.26,18.86c16.53,16.19,42.1,15.88,64.31,7.45,18.66,13.31,39.67,20.04,62.46,15.44,22.66,10.75,41.91,24.59,59.27,43.22Z"/><path class="c" d="M254.61,289.59c-17.37-18.62-36.62-32.46-59.27-43.22-22.79,4.6-43.81-2.13-62.46-15.44-22.21,8.43-47.77,8.74-64.31-7.45l-19.26-18.86c-23.37.04-41.82-15.66-47.46-38.58-7.04-28.63,6.56-57.1,32.49-72.08,6.7-37.39,38.23-55.23,74.06-60.81C132.28,3.57,172.31-5.84,208.78,7.69c29.56-13.14,62.6-9.51,86.93,11.41l20.46,17.59c37.24,6.16,61.06,38.65,57.18,76.03,7.89,9.41,15.89,17.83,18.49,29.67,7.2,32.82-11.86,65.03-42.61,77.78-10.67,52.95-58.17,30.87-65.1,43-4.08,7.15,9.41,18.88,6.5,26.99-4.4,12.26-26.52,9.6-36.01-.58ZM41.13,188.33c2,.28,4.05,1.51,5.84,1.27,3.82-.51,3.07-4.13,3.9-7.51l6.15-24.93c15.97-18.69,2.74-11.53,21.06-19.9,1.84-.84,6.7,4.86,4.29,6.83-18.37,14.99-24.94,40.8-10.46,60.73,11.7,16.1,34.37,21.27,52.57,12.85l-4.39-29.2c-.61-4.08,2.37-6.74,5.38-7.62,2.5-.73,8.41,1.79,7.96,6.05-2.23,21.22,10.83,38.75,31.99,44.97,15.69,4.61,31.81-.56,46.49-8.37,36.22-19.26,50.26-14.89,87.08-8.12,3.82,28.34-39.62-18.18-87.31,24.7,13.49,7.82,25.98,13.86,36.92,23.83,8.4,7.66,14.69,17.51,27.09,20.85-3.15-10.59-9.28-18.38-5.13-27.54,10.12-22.36,43.32-3.89,59.22-25.06,1.67-2.22,3.09-4.95,2.79-7-.63-4.36-11.98-2.84-12.45-9.07-.9-11.9,38.4,2.73,55.46-40.66,6.14-15.63,4.94-34.86-8.33-46.28-2.86-2.35-9.9-.08-12.71,1.06-14.01-8.78,20.78-25.73-6.9-61.7-19.27-25.04-40.91-14.43-58.24-22.27,1.42-5.27,5.8-5.53,8.47-9.18-18.16-17.99-43.87-26.84-69.24-22.48-8.79,1.51-12.63,5.62-16.92,12.48-1.97,3.15-7.88,1.28-10.31,1.93-3.33.89-2.43-8.76-4.68-9.76-22.73-10.03-52.3-3.87-70.46,14.14-2.7,3.83,2,10.42.88,13.23-4.85,9.6-11.56.93-17.52.58-37.74-2.24-64.16,37.28-58.76,44.01l6.25,7.8c3.62,4.52-10.38,5.33-15.26,7.23-21.14,8.19-29.67,30.79-26.47,52.32,2.21,14.88,11.53,27.81,25.74,29.78Z"/><path class="b" d="M354.55,130.22c-5.72,2.32-12.38,13.61-10.83,20.25-1.8.22-4.31.69-6.16,2.59-20.4,20.99-44.06,2.71-43.81,12.07.04,1.54-.02,6.41,2.22,6.66,6.45.71,13.12,3.44,18.99,3.04-18.19,27.6-.8,8.73-15.96,40.56-36.83-6.77-50.86-11.14-87.08,8.12-14.68,7.81-30.81,12.98-46.49,8.37-21.16-6.22-34.23-23.75-31.99-44.97.45-4.27-5.46-6.79-7.96-6.05-3.01.88-6,3.55-5.38,7.62l4.39,29.2c-18.19,8.42-40.86,3.25-52.57-12.85-14.48-19.93-7.91-45.74,10.46-60.73,2.4-1.96-2.45-7.67-4.29-6.83-18.32,8.37-5.09,1.21-21.06,19.9-3.55.05-9.15-.34-11.57,3.85-4.97,8.62-4.62,18.43-4.33,27.32-14.21-1.97-23.53-14.9-25.74-29.78-3.2-21.53,5.33-44.13,26.47-52.32,4.88-1.89,18.88-2.7,15.26-7.23l-6.25-7.8c-5.39-6.73,21.03-46.25,58.76-44.01,5.96.35,12.67,9.02,17.52-.58,1.13-2.81-3.58-9.4-.88-13.23,18.16-18.01,47.72-24.17,70.46-14.14,2.25.99,1.35,10.64,4.68,9.76,2.43-.65,8.33,1.22,10.31-1.93,4.29-6.86,8.13-10.97,16.92-12.48,25.37-4.36,51.09,4.49,69.24,22.48-2.67,3.65-7.05,3.91-8.47,9.18,17.33,7.84,38.96-2.76,58.24,22.27,27.69,35.97-7.11,52.92,6.9,61.7ZM278.71,48.03c-14.74-4.17-30.17,6.13-32.98,19.89-.73,3.6,1.26,7.02,3.68,7.26,8,.79,2.02-12.68,29.3-27.15ZM216.55,67.11c1.23-8.72-28.9-21.83-51.17.56-2.94,2.96-1.74,6.82.43,8.46s5.04,1.01,7.27-1.12c18.68-17.85,42.19,1.08,43.46-7.89ZM131.09,64.24c-8.07-9.33-19.28-8.68-27.64-2.76,8.68,5.47,18.94,6.5,27.64,2.76ZM113.04,130.33c12.81,6.21,28.47.67,37.25-8.81,4.9-5.29,4.94-12.64,2.49-19.03-5.61-14.68-36.02-17.94-49.03-13.81-7.11,13.77,38.58.41,39.23,21.86.44,14.49-36.21,11.05-29.95,19.79ZM230.18,136.45l33.79-3.59c18.57-1.97,56.37-24.13,41.28-37.78-15.65,22.25-39.48,30.2-65.92,29.83-15.58-.22-33.64,6.16-39.77,20.07-4.01,9.11-6.16,17.3-13.85,20.62-21.88,9.43-25.29-3.81-31.77,1.85-6.52,5.69,14.46,16.09,32.57,9.49,26.84-9.79,14.09-37.36,43.66-40.5Z"/><path class="b" d="M299,215.38c15.15-31.82-2.24-12.95,15.96-40.56,9.89-.67,20.1-5.22,27.15-12.21,4.78-4.73,2.58-8.04,1.61-12.15-1.56-6.63,5.11-17.93,10.83-20.25,2.81-1.14,9.84-3.41,12.71-1.06,13.27,11.42,14.47,30.65,8.33,46.28-17.06,43.39-56.36,28.75-55.46,40.66.47,6.23,11.82,4.71,12.45,9.07.3,2.05-1.12,4.78-2.79,7-15.9,21.17-49.11,2.7-59.22,25.06-4.15,9.16,1.99,16.95,5.13,27.54-12.39-3.34-18.69-13.19-27.09-20.85-10.94-9.97-23.43-16.02-36.92-23.83,47.68-42.88,91.13,3.64,87.31-24.7Z"/><path class="b" d="M57.03,157.17l-6.15,24.93c-.83,3.38-.08,7-3.9,7.51-1.79.24-3.84-1-5.84-1.27-.29-8.88-.64-18.69,4.33-27.32,2.41-4.19,8.02-3.8,11.57-3.85Z"/><path class="d" d="M230.18,136.45c-29.57,3.14-16.83,30.71-43.66,40.5-18.1,6.6-39.09-3.79-32.57-9.49,6.48-5.66,9.89,7.58,31.77-1.85,7.69-3.32,9.84-11.51,13.85-20.62,6.12-13.92,24.19-20.29,39.77-20.07,26.44.37,50.27-7.58,65.92-29.83,15.09,13.65-22.71,35.81-41.28,37.78l-33.79,3.59Z"/><path class="d" d="M113.04,130.33c-6.26-8.74,30.39-5.29,29.95-19.79-.65-21.45-46.34-8.1-39.23-21.86,13.01-4.13,43.42-.87,49.03,13.81,2.44,6.39,2.41,13.74-2.49,19.03-8.78,9.48-24.44,15.02-37.25,8.81Z"/><path class="d" d="M216.55,67.11c-1.27,8.97-24.78-9.96-43.46,7.89-2.23,2.13-5.21,2.68-7.27,1.12-2.17-1.64-3.38-5.5-.43-8.46,22.27-22.39,52.4-9.27,51.17-.56Z"/><path class="d" d="M343.73,150.47c.96,4.11,3.17,7.41-1.61,12.15-7.06,6.99-17.26,11.53-27.15,12.21-5.87.4-12.54-2.32-18.99-3.04-2.23-.25-2.17-5.11-2.22-6.66-.25-9.36,23.42,8.92,43.81-12.07,1.84-1.9,4.36-2.37,6.16-2.59Z"/><path class="d" d="M278.71,48.03c-27.28,14.47-21.3,27.94-29.3,27.15-2.42-.24-4.41-3.66-3.68-7.26,2.81-13.75,18.24-24.06,32.98-19.89Z"/><path class="b" d="M131.09,64.24c-8.7,3.74-18.96,2.72-27.64-2.76,8.36-5.92,19.57-6.57,27.64,2.76Z"/></svg>