<?xml version="1.0" encoding="UTF-8"?><svg id="a" xmlns="http://www.w3.org/2000/svg" viewBox="0 0 151.86 181.34"><defs><style>.b{fill:#323332;}.c{fill:#f6c3ac;}.d{fill:#fff2e6;}</style></defs><path class="d" d="M53.19,179.04c2.81,1.26,6.67.77,10.21.76l64.29-.15c.46.76,1.16,1.49,1.84,1.61.9.17,2.32.11,3.15-.73,17.92-18.07,21.51-51.02,17.95-74.92-1.74-11.64-13.01-17.84-23.77-14.62-9.26-10.49-10.85-10.94-23.99-9.38-5.84-7.77-15.28-11.66-25.14-7.17-3.49-22.51,6.15-6.16,6.24-23.78,8.01,3.24,13.8,7.13,20.37,11.24,3.55,2.22,13.04,9.72,15.21,5.91,2.75-4.83-18.33-13.32-22.69-17.52,6.53-2.48,12.05-2.92,16.66-7.11,3.44-3.13,4.73-9.27,2.18-13.26-6.07-9.48-28.68-1.65-38.22,2.49-.54-7.72-.03-13.79-1.05-20.36-1.15-7.4-6.26-12.59-14.19-12-4.56.34-10.35,1.65-12.87,5.91-4.76,8.04-6.22,17.29-7.64,26.88-10.71.5-26.74.1-27.36,13.78-.2,4.45,3.26,8.71,8.05,9.96,5.79,1.51,11.2,0,17.4-.65l-.94,39.63c-6.16-4.97-10.68-9.58-17.75-11.06-6.4-1.34-13.38.17-17.89,4.86-4.25,4.42-4.12,10.71-.47,15.39,7.87,10.08,11.98,21.07,14.31,33.54,3.46,18.59,15.1,33.9,31.59,42.38,1.82.94,4.66-.01,4.56-1.62Z"/><path class="b" d="M127.69,179.65c.01-1.81,1.21-3.17,2.42-4.85,14-19.43,17.19-46.72,13.7-69.87-.58-3.83-3.22-6.68-5.66-8.13-3.15-1.87-8.61-2.78-10.77.87-2.89,4.88-.61,18.13-4.44,18.52s-1.72-12.77-1.59-16.16c.29-7.66-4.5-14.4-12.29-14.03-9.18.43-4.53,9.47-7,19.63-.26,1.07-1.18,1.87-1.91,1.85-6.48-.22,6.02-29.43-14.01-29.83-15.94-.32-5.01,23.09-11.9,23.34-1.2.04-2.32-1.53-2.34-3.17l-.44-38.96c-.03-2.54-1.54-4.67-1.84-6.72.52-1.06,1.66-1.22,2.46-1.05,3.4.73,3.56,5.78,6.07,4.26,4.08-2.48-3.63-12.24-11.64-11.52-7.57.68-12.64,10.68-9.3,12.89,3,1.99,6.46-2.45,10.05-3.22.11,1.77.31,3.78-1.09,5.18-3.42,3.41-10.23,3.89-13.36.58-1.84-1.94-1.68-4.86-.9-8.1-2.21.38-5.05,1.61-5.8,3.46-.86,22.79-1.11,45.07-.79,67.85.02,1.6-1.32,3-2.19,3.25-6.71,1.93,3.16-22.42-18.69-33.71-6.26-3.24-14.32-2.13-18.42,3.7l12.04,21.4c6.98,12.41-.11,32.81,29.59,56.57,2.21,1.77,4.26,3.41,5.55,5.35.1,1.61-2.74,2.56-4.56,1.62-16.48-8.48-28.12-23.8-31.59-42.38-2.32-12.47-6.43-23.46-14.31-33.54-3.65-4.68-3.78-10.96.47-15.39,4.51-4.69,11.5-6.2,17.89-4.86,7.07,1.48,11.6,6.09,17.75,11.06l.94-39.63c-6.2.65-11.61,2.16-17.4.65-4.79-1.25-8.25-5.5-8.05-9.96.62-13.68,16.65-13.28,27.36-13.78,1.43-9.59,2.88-18.84,7.64-26.88C51.87,1.69,57.66.39,62.22.05c7.94-.6,13.05,4.59,14.19,12,1.02,6.57.51,12.65,1.05,20.36,9.54-4.14,32.16-11.97,38.22-2.49,2.56,3.99,1.26,10.14-2.18,13.26-4.61,4.2-10.13,4.64-16.66,7.11,4.36,4.2,25.44,12.69,22.69,17.52-2.17,3.81-11.66-3.69-15.21-5.91-6.57-4.11-12.36-8-20.37-11.24-.1,17.62-9.73,1.27-6.24,23.78,9.86-4.49,19.3-.6,25.14,7.17,13.14-1.56,14.73-1.11,23.99,9.38,10.76-3.21,22.03,2.98,23.77,14.62,3.56,23.9-.03,56.85-17.95,74.92-.83.84-2.25.9-3.15.73-.68-.13-1.38-.85-1.84-1.61ZM61,38.21c3.6,1.21,7.2-1.49,10.74-2.68l-.76-20.76c-.17-4.72-3.02-8.49-7.36-8.93-13.51-1.35-14.5,18.45-14.97,28.21l12.36,4.17ZM110.66,34.74c-.82-3.18-3.89-3.69-6.95-4.11-9.7.92-19.13,3.08-28.11,9.43,7.76,6.43,34.03,6.75,35.06-5.32ZM40.95,43.97c1.12-1.15,2.73-.53,3.32-.13s1.09,2.37,1.85,2.81c3.77-.48,7.57-2.59,11.23-4.68-3.48-2.04-6.73-2.46-10.36-3.38-12.97-3.27-29.05,2.7-26.73,9.5,2.05,5.99,13.94,4.41,18.83,2,.96-2.12.27-4.5,1.85-6.12Z"/><path class="c" d="M67.24,53.52c-3.58.77-7.05,5.21-10.05,3.22-3.34-2.22,1.73-12.21,9.3-12.89,8.01-.72,15.72,9.04,11.64,11.52-2.5,1.52-2.66-3.53-6.07-4.26"/><path class="c" d="M110.66,34.74c-1.03,12.07-27.29,11.74-35.06,5.32,8.98-6.34,18.41-8.51,28.11-9.43,3.06.42,6.13.94,6.95,4.11Z"/><path class="c" d="M39.1,50.09c-4.9,2.41-16.78,3.99-18.83-2-2.33-6.8,13.75-12.77,26.73-9.5,3.64.92,6.88,1.34,10.36,3.38-3.66,2.09-7.46,4.2-11.23,4.68"/></svg>