<?xml version="1.0" encoding="UTF-8"?><svg id="a" xmlns="http://www.w3.org/2000/svg" viewBox="0 0 193.27 222.81"><defs><style>.b{fill:#fbe9a3;}.c{fill:#f8e2a4;}.d{fill:#565758;}.e{fill:#ebebea;}.f{fill:#facebb;}.g{fill:#323332;}.h{fill:#dee0e1;}.i{fill:#363534;}.j{fill:#fdfdfd;}</style></defs><path class="j" d="M84.67,1.21c-2.3.19-5.27,1.01-6.92,2.23-5.92,4.38-1.56,11.76-4.09,19.35l-22.88,1.21c-2.39.13-3.7-.03-6.45.17l-14.33,1c-2.5-2.46-6.16-.73-8.78.29s-9.61-1.46-10.28,2.94c-1.04,15.88,1.46,31.9,1.6,48.04.02,2.25,2.22,4.5,4.21,4.55,19.23.49,37.66-1.19,56.83-1.93.88,4.19.93,7.85,0,12.2-3.04.42-6.96,1.25-9.51.81-3.06-2.58-5.9.19-8.76.33l-18.01.88c-.49-.52-1.16-.8-1.69-.72-1.31.19-1.4,1.72-2.12,2.15-11.72,7.06-21.94,16.49-32.78,25.53-1.13.94-.81,5.17.27,6.04,9.66,7.71,16.62,18.39,27.12,24.75,6.84,2.93,15.53-.42,22.3.6,4.32.65,8.91,1.04,12.71-.93,2.67-.54,6.02.07,9.83.12l3.9,64.24-28.57,1.69c-1.41.08-2.99.81-4.03,1.13-.98.31-1.99,2.28-1.12,3.73,10.51,1.87,20.91,1.02,31.75.96l61.92-.36c1.68,0,3.2-1.86,3.26-2.82.35-6.22-25.02-3.92-32.04-4.54-.58-16.59.43-32.85.75-49.49l.31-16.11,38.93.06c10.67.02,20.69-.27,31.19-1.7,8.35-5.96,7.68-21.97,9.92-32.03,1.62-7.25,7.42-18.52,1.69-23.99-1.62-1.54-3.39-.41-5.33-.42l-75.07-.53c-1.01-3.28-.57-6.29-1.14-9.17-.25-1.24,1-2.6,1.03-3.81l52.07-1.13,27.11-24.25c6.99-6.25-10.58-13.38-14.57-15.85-5.44-5.23-11.85-9.93-18.73-14.3-5.29-3.35-11.37-1.58-16.6-1.27-8.51.51-17.17-.56-25.6.96l-3.74-1.05-.05-12.45c-.04-10.5-16.35-7.49-23.01-7.51C87.37.13,86.83,0,86.37,0c-.92,0-1.26.99-1.7,1.21Z"/><path class="g" d="M84.67,1.21c-.1.59.31.96.84.99.84.05,1.23-1.02,1.67-1.36,6.65.02,22.97-3,23.01,7.51l.05,12.45c0,1.8-.76,3.75-.93,5.38.63.85,4.24.88,4.78-.13s-.37-3.08-.1-4.2c8.43-1.52,17.09-.45,25.6-.96,1.42-.17,8.59,4.92,9.45,6.68l-104.37,3.93c-8.43.32-16.05.29-24.33,1.12l.21,15.92c-2.66,2.25-2.89,8.92.94,10-.65,1.6,1.2,3.38,1.12,4.74-.24,3.04-.68,6.41,1.26,9.28,18.08-.55,35.31-3.07,52.46-3.1l18.22-.04c22.06-.04,43.34-1.77,65.55-1.75,7.23-5.42,13.51-11.38,20.26-17.81-2.53-3.26-5.88-3.98-7.12-7.02,1.85-1.58,1.82-4.12,1.69-6.4,3.99,2.46,21.56,9.59,14.57,15.85l-27.11,24.25-52.07,1.13c.05-1.49-.19-3.47-1.18-4.14-1.82-1.24-4.43-1-5.73.9l-2.56,3.74c-1.39.34-2.74-.41-5.11-.39-.19-.88-.1-1.97-.62-2.42-.83-.72-2.72-1.56-3.64-1.19-1.5.61-1.06,2.69-.7,3.66-2.34.03-4.76.85-7.55.89-.79,4.04-.64,7.72-.31,12.22,5.82.48,11.4.15,17.61-.1.84-4,.38-7.36.74-10.79,2.68.57,5.24,1.8,8.01,1.42.57,2.88.13,5.89,1.14,9.17l75.07.53c-1.02,2.1-1.86,3.97-2.18,6.23-49.2-.65-98.28.1-147.77,2.39-9.01,6.89-17.62,12.57-25.72,20.44l8.4,9.46c-1.86,1.35-2.16,4.31-.03,6.73,1.27,1.44,3.93-1.14,3.95-2.8,4.3,1.79,7.81,6.45,12.43,9.04,17.5.2,34.18-1.8,51.7-2.11l81.21-1.45c13.3-.24,7.98-16.95,14.41-27.4,3.05.22,4.08,4.06,7.23,3.88-2.24,10.06-1.58,26.07-9.92,32.03-10.49,1.43-20.51,1.71-31.19,1.7l-38.93-.06-.31,16.11c-.32,16.64-1.33,32.9-.75,49.49,7.02.62,32.39-1.68,32.04,4.54-.05.96-1.57,2.81-3.26,2.82l-61.92.36c-10.84.06-21.24.91-31.75-.96-.86-1.44.14-3.42,1.12-3.73,1.04-.33,2.63-1.05,4.03-1.13l28.57-1.69-3.9-64.24c-3.81-.06-7.16-.66-9.83-.12,1.2-1.62-15.73-2.31-12.71.93-6.77-1.02-15.46,2.33-22.3-.6-10.5-6.36-17.46-17.04-27.12-24.75-1.09-.87-1.41-5.1-.27-6.04,10.84-9.04,21.06-18.47,32.78-25.53,1.43.17,3.63.47,3.81-1.43l18.01-.88c2.27,1.6,7.18,2.5,8.76-.33,2.55.43,6.48-.39,9.51-.81.93-4.35.87-8.02,0-12.2-19.17.74-37.6,2.42-56.83,1.93-1.99-.05-4.19-2.3-4.21-4.55-.14-16.13-2.63-32.16-1.6-48.04.67-4.4,7.79-1.96,10.28-2.94,2.39,1.98,6.64,2.1,8.78-.29l14.33-1c-1.72.81,6.58,2.74,6.45-.17l22.88-1.21c2.52-7.59-1.83-14.97,4.09-19.35,1.64-1.22,4.62-2.03,6.92-2.23ZM101.88,21.32c.34-5.06.46-8.41-.59-12.68-6.04-1.43-12.24-1.55-18.13.15-.39,4.92-.55,9.13.36,13.67,6.41.12,11.9-.47,18.36-1.15ZM98.51,213.35l1.38-63.81c-6.07-.24-10.93-.3-16.38.25l2.07,64.12c4.63.78,8.31,1,12.93-.56Z"/><path class="i" d="M174.91,36.44c.13,2.27.16,4.82-1.69,6.4l-24.19-15.28c-.86-1.76-8.02-6.85-9.45-6.68,5.24-.31,11.31-2.09,16.6,1.27,6.88,4.36,13.29,9.06,18.73,14.3Z"/><path class="i" d="M189.11,115.6c-3.15.18-4.18-3.66-7.23-3.88,1.49-4.09.82-9.98,1.42-14.31.32-2.26,1.16-4.13,2.18-6.23,1.93.01,3.71-1.12,5.33.42,5.72,5.47-.07,16.74-1.69,23.99Z"/><path class="i" d="M110.31,77.67c-.04,1.21-1.28,2.56-1.03,3.81-2.77.38-5.33-.85-8.01-1.42.05-.51-.07-1.01-.43-1.89l2.56-3.74c1.3-1.9,3.92-2.14,5.73-.9.99.68,1.23,2.66,1.18,4.14Z"/><path class="i" d="M63.12,150.69c-3.81,1.97-8.39,1.58-12.71.93-3.01-3.24,13.92-2.54,12.71-.93Z"/><path class="i" d="M113.98,21.85c-.26,1.12.64,3.19.1,4.2s-4.15.99-4.78.13c.17-1.63.94-3.58.93-5.38l3.74,1.05Z"/><path class="i" d="M64.06,92.06c-1.58,2.83-6.48,1.93-8.76.33,2.85-.14,5.7-2.91,8.76-.33Z"/><path class="i" d="M30,25.16c-2.15,2.39-6.39,2.27-8.78.29,2.62-1.03,6.28-2.76,8.78-.29Z"/><path class="i" d="M50.78,23.99c.14,2.91-8.17.97-6.45.17,2.75-.19,4.06-.04,6.45-.17Z"/><path class="i" d="M37.3,93.27c-.18,1.9-2.38,1.59-3.81,1.43.71-.43.81-1.96,2.12-2.15.53-.08,1.2.2,1.69.72Z"/><path class="i" d="M87.18.84c-.44.35-.83,1.41-1.67,1.36-.53-.03-.94-.41-.84-.99C85.11.99,85.45,0,86.37,0c.46,0,1,.13.81.84Z"/><path class="f" d="M183.3,97.41c-.6,4.32.07,10.22-1.42,14.31-6.43,10.44-1.11,27.16-14.41,27.4l-81.21,1.45c-17.52.31-34.2,2.31-51.7,2.11-4.62-2.59-8.13-7.25-12.43-9.04-.9-1.35-1.6-4.08-3.92-3.93l-8.4-9.46c8.1-7.88,16.7-13.55,25.72-20.44,49.49-2.29,98.57-3.05,147.77-2.39ZM124.56,113.05c6.64.7,13.57,1.12,19.63-2.45-7.1-3-14.38-2.05-21.73-.93-14.63,2.24-33.69-1.59-40.57,3.69,11.98,4.58,29.19-1.73,42.67-.31ZM171.59,117.52c-6.84-2.39-13.79-2.65-19.14,1.08,6.47,1.77,13.31,2.93,19.14-1.08ZM171.56,125.84c-8.08-2.58-15.32-1.56-22.29.67,7.44,1.23,14.99,1.97,22.29-.67Z"/><path class="b" d="M149.03,27.56l24.19,15.28c1.25,3.03,4.59,3.75,7.12,7.02-6.75,6.43-13.03,12.39-20.26,17.81-22.21-.02-43.49,1.71-65.55,1.75l-18.22.04c-.08-1.8,1.18-5.27-.8-6.86-1.76-1.41-5.45-.52-5.35-3.33,1.14-1.43,3.13-1.01,5.15-2.5-4.67-4.06-18.32,2.06-27.08.43l3.3-2.63c1.08-.86.47-2.86.3-3.88.56-1.39,2.55-.73,3.23-3.58-7.12.38-15.77-2.03-21.33,2.62-14.32,11.99-3.32,11.19-11.14,13.55.07-1.37-1.77-3.14-1.12-4.74-.3-3.36.97-7.04-.94-10l-.21-15.92c8.28-.84,15.91-.8,24.33-1.12l104.37-3.93Z"/><path class="e" d="M98.51,213.35c-4.62,1.56-8.3,1.34-12.93.56l-2.07-64.12c5.45-.55,10.31-.5,16.38-.25l-1.38,63.81Z"/><path class="c" d="M44.6,50.84c-.08,1.63,1.36,1.54,1.22-.04,1.96-.63,4.05-.79,6.02-.11.17,1.02.78,3.02-.3,3.88l-3.3,2.63c-.18.39-.14,1.32.04,1.7.44.88,1.64.59,2.4.59-.16,1.2,1.19,1.16,1.92,1.31,1.35.27,2.11-.76,2.94-1.41.96-.3,2.67-.31,3.65.02.69.23,1.02,1.4,1.92,1.35s1.99-.18,1.74-1.37c2.43-.43,4.89-.62,7.32-.12-.1,2.81,3.59,1.92,5.35,3.33,1.98,1.59.72,5.06.8,6.86-17.15.03-34.38,2.55-52.46,3.1-1.94-2.87-1.49-6.24-1.26-9.28,7.82-2.36-3.18-1.56,11.14-13.55,3.39,1.59,7.29.16,10.86,1.1Z"/><path class="e" d="M101.88,21.32c-6.46.67-11.95,1.26-18.36,1.15-.9-4.54-.74-8.75-.36-13.67,5.89-1.71,12.09-1.58,18.13-.15,1.05,4.27.92,7.62.59,12.68Z"/><path class="h" d="M90.77,77.84l4.96-.06c2.37-.03,3.72.73,5.11.39.36.88.49,1.39.43,1.89-.36,3.42.11,6.78-.74,10.79-6.21.25-11.8.58-17.61.1-.34-4.5-.48-8.17.31-12.22,2.78-.04,5.2-.87,7.55-.89Z"/><path class="i" d="M22.13,133.64c-.02,1.66-2.68,4.24-3.95,2.8-2.13-2.42-1.83-5.38.03-6.73,2.32-.15,3.02,2.58,3.92,3.93Z"/><path class="i" d="M21.47,58.53c-3.83-1.07-3.6-7.74-.94-10,1.91,2.96.65,6.64.94,10Z"/><path class="i" d="M95.72,77.78l-4.96.06c-.36-.97-.8-3.05.7-3.66.92-.38,2.81.47,3.64,1.19.52.45.43,1.53.62,2.42Z"/><path class="d" d="M124.56,113.05c-13.48-1.42-30.69,4.89-42.67.31,6.88-5.28,25.94-1.45,40.57-3.69,7.35-1.13,14.63-2.08,21.73.93-6.05,3.58-12.98,3.15-19.63,2.45Z"/><path class="d" d="M171.59,117.52c-5.82,4.01-12.67,2.85-19.14,1.08,5.34-3.73,12.3-3.47,19.14-1.08Z"/><path class="d" d="M171.56,125.84c-7.29,2.65-14.84,1.91-22.29.67,6.96-2.23,14.2-3.26,22.29-.67Z"/><path class="d" d="M51.83,50.69c-1.97-.69-4.05-.53-6.02.11-.32.1-.9.13-1.22.04-3.57-.94-7.47.48-10.86-1.1,5.56-4.65,14.21-2.24,21.33-2.62-.69,2.85-2.67,2.19-3.23,3.58Z"/><path class="d" d="M70.17,59.26c-2.43-.5-4.9-.31-7.32.12-1.19.21-2.46-.07-3.65.02-.98-.33-2.69-.31-3.65-.02-1.62.09-3.24.1-4.86.1-.76,0-1.96.29-2.4-.59-.19-.37-.22-1.31-.04-1.7,8.76,1.63,22.41-4.49,27.08-.43-2.02,1.49-4,1.07-5.15,2.5Z"/><path class="b" d="M55.55,59.38c-.83.65-1.6,1.68-2.94,1.41-.73-.14-2.08-.11-1.92-1.31,1.62,0,3.24,0,4.86-.1Z"/><path class="b" d="M62.85,59.38c.26,1.19-.8,1.32-1.74,1.37s-1.23-1.12-1.92-1.35c1.2-.09,2.46.19,3.65-.02Z"/><path class="b" d="M44.6,50.84c.32.08.9.06,1.22-.04.14,1.59-1.3,1.67-1.22.04Z"/></svg>