<?xml version="1.0" encoding="UTF-8"?><svg id="a" xmlns="http://www.w3.org/2000/svg" viewBox="0 0 163.86 183.49"><defs><style>.b{fill:#e6e6e6;}.c{fill:#f8e2a4;}.d{fill:#fff;}.e{fill:#565758;}.f{fill:#ebebea;}.g{fill:#323332;}.h{fill:#f7e28c;}.i{fill:#f6c3ac;}.j{fill:#fbf0dc;}.k{fill:#fafbf1;}.l{fill:#363534;}.m{fill:#fdfdfd;}</style></defs><ellipse class="b" cx="87.21" cy="178.18" rx="76.65" ry="5.3"/><path class="m" d="M.21,105.64c-.77,24.73,13.43,48.09,34.3,61.01,16.43,10.17,34.83,13.68,53.63,12.85,9.19-.41,15.76-4.11,23.26-7.21,36.71-15.16,52.7-60.73,34.47-97.86,5.15-3.75,14.79-3.28,17.53-10.71,2.13-5.76-4.79-13.24-9.03-17.78-2.47-2.64-6.37-4.04-9.7-2.58-4.89,2.13-7.32,6.21-10.11,11.86-7.72-7.11-15.33-12.94-24.82-17.54-1.83-.89-.2-6.48,1.56-6.48,6.87-.02,11.19-3.84,12.4-10.63,1.04-5.86-1.07-11.17-6.75-13.84C106.65,1.9,94.94-.41,83.56.06c-6.28.26-9.86,4.81-11.86,10.21-2.32,6.26-.89,12.18,5.7,14.64,1.01.38,1.49,1.65,1.42,2.32-.09.88-.14,3.51-1.9,3.46-25.42-.71-49.36,11.31-64.31,32.62C3.79,75.89-1.1,90.82.21,105.64Z"/><path class="g" d="M111.4,172.3c-1.73-1.65-2.5-4.01-1.75-6.36,32.66-16.6,43.54-57.33,27.88-91-9.88-21.24-31.24-35.12-54.54-36.67-5.51-.37-11.49-1.97-17.24.54-18.33.61-37.09,11-46.84,28.22-3.09,3.08-5.16,7.42-6.81,11.54-2.62,6.57-4.65,14.05-4.94,22.15-1.28-.33-3.7-1.44-4.83.24-1.06,1.57-1.07,3.63-2.13,4.68-1.31-14.82,3.58-29.75,12.41-42.34,14.95-21.32,38.89-33.34,64.31-32.62,1.75.05,1.8-2.57,1.9-3.46.07-.66-.41-1.94-1.42-2.32-6.59-2.46-8.03-8.37-5.7-14.64C73.7,4.87,77.28.32,83.56.06c11.38-.47,23.09,1.84,33.39,6.68,5.68,2.67,7.79,7.97,6.75,13.84-1.21,6.8-5.53,10.61-12.4,10.63-1.76,0-3.38,5.6-1.56,6.48,9.49,4.59,17.1,10.42,24.82,17.54,2.79-5.66,5.23-9.73,10.11-11.86,3.33-1.46,7.23-.06,9.7,2.58,4.24,4.54,11.16,12.01,9.03,17.78-2.74,7.43-12.38,6.96-17.53,10.71,18.23,37.14,2.24,82.7-34.47,97.86ZM105.74,18.35c3.1.84,4.48,4.12,6.85,5.04,2.74,1.06,4.36-3.67,4.39-5.6.14-9.73-22.43-12.14-29.89-12.58-3.42-.2-7.02,1.43-8.15,3.68-1.52,3.01-3.05,6.27-.9,8.92,4.33-6.68,21.83-1.03,27.7.55ZM102.51,35.29c1.51-3.65,1.94-6.42,2.23-10-6.11-2.27-12.05-3.48-18.38-4.07-1.24,3.54-2.33,6.6-2.15,10,6.46,1.1,11.7,2.14,18.3,4.06ZM151.31,65.73c2.9-.85,6.97-2.33,6.6-4.72-.77-4.87-5.11-9.2-8.77-12.27-1.66-1.39-6.34,1.56-5.55,3.14,2.43,4.89,5.86,8.17,7.72,13.85ZM143.44,68.65c1.24,1.48,4.33-1.89,4.85-3.3-2.99-1.89-4.15-5.06-6.6-7.3-1.37-1.25-4.02.09-5.6,1.85l7.36,8.76Z"/><path class="l" d="M7.18,100.72c-1.16,32.47,20.32,59.86,51.62,66.64,17.31,3.75,33.9,5.02,50.85-1.43-.75,2.36.02,4.71,1.75,6.36-7.5,3.1-14.07,6.8-23.26,7.21-18.8.83-37.2-2.69-53.63-12.85C13.64,153.73-.56,130.37.21,105.64c1.07-1.04,1.07-3.1,2.13-4.68,1.14-1.69,3.55-.58,4.83-.24Z"/><path class="h" d="M109.65,165.93c-16.95,6.45-33.55,5.18-50.85,1.43-31.3-6.78-52.79-34.18-51.62-66.64.29-8.1,2.32-15.58,4.94-22.15,2.78,1.86,3.97-5.8,7.59-10.51,11.13-14.46,28.42-24.43,45.76-27.83,5.22-1.02,10.41-1.86,16.2-1.08.74.1,1.28-.53,1.33-.88,23.3,1.55,44.66,15.43,54.54,36.67,15.66,33.67,4.78,74.4-27.88,91ZM75.72,46.63c-19.08-.98-40.12,8.03-49.64,27.14-3.39,2.65-4.07,7.21-5.75,10.96-2.07,4.62-3.82,10.12-3.39,15.85-1.5,10,.95,19.7,4.89,29.65.17,4.27,3.07,7.88,5.65,11.51,7.62,10.75,18.91,16.4,30.5,21.18,3.6,1.49,5.71,2.72,9.75,3.2,12.18,1.43,23.83.88,35.17-4.48,2.87-1.36,6.41-1.55,8.21-4.99,1.09-2.1,4.74-2,6.32-2.91,2.63-5.16,8.52-8.46,12.16-12.58,4.1-4.64,5.33-11.75,7.85-17.21,3.04-6.6,2.15-13.79,2.92-20.54.83-7.29-1.47-12.9-3.71-19.26-2.65-7.56-5.54-14.23-11.62-19.91-5.32-4.96-11.28-10.52-18.65-9.68-9.14-5.19-19.45-8.06-30.64-7.92Z"/><path class="d" d="M105.74,18.35c-5.87-1.58-23.37-7.23-27.7-.55-2.14-2.65-.62-5.9.9-8.92,1.14-2.24,4.74-3.88,8.15-3.68,7.47.44,30.03,2.85,29.89,12.58-.03,1.93-1.65,6.66-4.39,5.6-2.37-.92-3.76-4.2-6.85-5.04Z"/><path class="k" d="M102.51,35.29c-6.6-1.93-11.85-2.96-18.3-4.06-.18-3.4.92-6.46,2.15-10,6.34.58,12.27,1.8,18.38,4.07-.29,3.58-.72,6.35-2.23,10Z"/><path class="f" d="M65.76,38.81l-.3,1.42c-17.34,3.4-34.63,13.37-45.76,27.83-.91.35-.94-.36-.79-1.03,9.75-17.22,28.51-27.61,46.84-28.22Z"/><path class="i" d="M151.31,65.73c-1.87-5.68-5.3-8.97-7.72-13.85-.79-1.58,3.89-4.53,5.55-3.14,3.66,3.07,8,7.4,8.77,12.27.38,2.39-3.7,3.87-6.6,4.72Z"/><path class="k" d="M143.44,68.65l-7.36-8.76c1.59-1.76,4.23-3.1,5.6-1.85,2.46,2.24,3.61,5.41,6.6,7.3-.52,1.41-3.61,4.79-4.85,3.3Z"/><path class="c" d="M83,38.27c-.05.35-.59.98-1.33.88-5.79-.78-10.98.05-16.2,1.08l.3-1.42c5.75-2.52,11.73-.91,17.24-.54Z"/><path class="j" d="M19.71,68.05c-3.63,4.71-4.82,12.37-7.59,10.51,1.64-4.12,3.72-8.46,6.81-11.54-.15.67-.12,1.38.79,1.03Z"/><path class="g" d="M21.81,130.22c-3.94-9.95-6.39-19.64-4.89-29.65.98.4,1.51-.57,1.76-1.73l2.5-11.78c.26-1.24.13-2.37-.87-2.33,1.68-3.75,2.37-8.31,5.75-10.96,1.66.23,3.35.27,5.02.12-10.11,14.98-11.96,33.8-4.88,50.74,1.45,3.47,2.38,7.84,6.41,9.12-.32,1.23-.02,2.61,1.01,3.8,16.57,19.06,44.58,25.31,66.69,14.86,22.18-10.47,32.78-34.1,28.87-59.04,1.46-.24,2.61-1.24,3.62-2.31,8.12,28.79-9.44,59.77-37.29,68.61-13.33,4.23-26.79,2.44-39.69-1.67-14.86-4.73-26.35-14.63-34.03-27.78Z"/><path class="k" d="M21.81,130.22c7.68,13.15,19.17,23.05,34.03,27.78,12.9,4.11,26.36,5.9,39.69,1.67,27.84-8.84,45.41-39.82,37.29-68.61-.26-.92-.81-2.12-1.08-3.4-3.01-14.12-12.49-25.8-25.39-33.11,7.38-.84,13.33,4.72,18.65,9.68,6.08,5.68,8.97,12.36,11.62,19.91,2.24,6.37,4.54,11.97,3.71,19.26-.77,6.75.12,13.95-2.92,20.54-2.52,5.45-3.75,12.56-7.85,17.21-3.64,4.12-9.54,7.42-12.16,12.58-1.58.91-5.23.82-6.32,2.91-1.79,3.43-5.33,3.63-8.21,4.99-11.34,5.36-22.99,5.92-35.17,4.48-4.04-.48-6.14-1.71-9.75-3.2-11.58-4.78-22.88-10.43-30.5-21.18-2.57-3.63-5.47-7.25-5.65-11.51Z"/><path class="g" d="M106.35,54.54c12.9,7.32,22.38,19,25.39,33.11-1.11.66-2.35,1.02-3.61,1.17-4.19-8.22-7.88-16.97-15.17-23.5-10.79-9.67-25.23-14.57-40.37-13.98.67-1.73,2.56-1.61,4.99-2.1-.28-1.33-1.51-1.67-1.85-2.62,11.19-.14,21.5,2.73,30.64,7.92Z"/><path class="l" d="M75.72,46.63c.35.96,1.57,1.29,1.85,2.62-2.42.5-4.32.37-4.99,2.1-8.21.32-16.58,3.3-23.86,7.24-1.12.65-1.44,1.01-1.59,1.52-1.32,4.42,1.43.28,4.65,4.2.66.8.93,3.53-.73,3.44-3.5-.19-3.25-3.91-5.05-7.28-5.85,3.24-11,7.62-14.91,13.42-1.68.15-3.36.11-5.02-.12,9.52-19.11,30.57-28.12,49.64-27.14Z"/><path class="l" d="M16.93,100.57c-.43-5.72,1.32-11.22,3.39-15.85.99-.04,1.13,1.09.87,2.33l-2.5,11.78c-.25,1.16-.78,2.14-1.76,1.73Z"/><path class="l" d="M132.82,91.06c-1.01,1.07-2.16,2.07-3.62,2.31-.18-1.15-1.64-2.28-1.07-4.54,1.27-.15,2.5-.51,3.61-1.17.27,1.28.82,2.49,1.08,3.4Z"/><path class="g" d="M85.72,111.8c-5.42,6.24-14.51,3.98-18.15-2.14s3.98-8.61,4.7-12.52c1.27-6.93-4.62-14.47-2.06-21.59,2.75-7.65,7.74,23.04,9.43,21.2,1.84,2.17,5.89,2.33,6.83,5.22.93,2.88,2.05,6.59-.75,9.82ZM76.86,108.92c2.55.27,3.93-1.24,4.06-2.85s-1.03-3.03-3.03-3.45c-2.23-.46-3.93.89-4.08,2.84-.1,1.36.64,3.21,3.05,3.46Z"/><path class="e" d="M126.77,116.01c-.6,3.01-7.84,1.46-7.05-1.15.74-2.47,7.47-.96,7.05,1.15Z"/><path class="l" d="M64.98,153.25c-2.88-.59-1.33-8.19,1.74-7.46,2.45.58.34,7.89-1.74,7.46Z"/><path class="e" d="M83.53,62.01c-2.51-3.02-.68-6.67,2.25-7.62,1.12,2.83,1.11,5.86-2.25,7.62Z"/><path class="l" d="M31.23,96.21c-.1,2.02-6.55,1.8-6.56-.88-.02-3.05,6.7-1.87,6.56.88Z"/><path class="l" d="M32.62,133.75c.84-3.53,4.16-6.3,5.89-4.16,1.23,1.52-.88,3.18-1.96,3.69-.99.47-2.39-.38-3.92.47Z"/><path class="e" d="M117.73,79.6c-.86.57-1.6.86-2.48.97-.97.12-2.21-.32-1.74-1.91s3.63-3.25,5.15-1.88c.67.6.3,2.02-.92,2.83Z"/><path class="l" d="M102.6,148.34c-2.58.92-4.85-3.72-3.01-5.34,1.24-1.1,2.76.44,3.18,1.23.49.91,2.11,3.31-.17,4.11Z"/></svg>