<?xml version="1.0" encoding="UTF-8"?><svg id="a" xmlns="http://www.w3.org/2000/svg" viewBox="0 0 216.49 169.81"><path d="M3.68,160.28c-.28,1.62,1.18,2.43,2.32,2.84,4.72,7.58,16.18,8.53,24.08,3.81,3.69-2.2,5.99-5.43,9.62-7.86,9.6-6.43,18.14-14.34,27.49-22.55s18.93-16.57,27.66-27.27c20.32,18.13,47.78,22.73,73.61,14.19,22.33-7.38,40.28-24.27,46.07-47.33,3.65-14.55,2.32-29.57-4.82-42.47C187.21-7,134.29-8.59,102.83,16.96c-22.7,18.44-29.7,46.67-20.93,74.05,1.02,3.2-7.28,5.19-9.65,3.75s-6.08.12-7.92,2.01c-17.61,18.06-35.95,25.27-57.87,41.52-7.35,5.45-8.65,14.53-2.78,21.99Z" fill="#fdfdfd"/><path d="M67.19,136.51c-1.59-2.58-.61-6.01-2.69-8.33l.07-.73c1.13-.02,1.87-1.14,2.51-1.83,3.75-.92,7.53-3.84,8.83-7.61,7.31-1.71-2.14-14.71-6.54-18.33-18.56,20.58-40.1,26.9-60.13,43.91-.86.73-1.16,1.62-1.37,2.59-.13.6.84,1.02.97,1.66.61,3.26,3.78,5.65,4.7,8.7l-2.05.32c-1.25-1.07-2.69-2.21-4.66-2.65,1.01,3.8,4.47,8.1,7.95,6.11.55-.31,1.86-.06,2.48-.19,2.83.82,6.24-.03,9.33-1.67l5.77-3.06c.32,3.62,4.24,4.24,7.36,3.67-3.63,2.43-5.93,5.66-9.62,7.86-7.9,4.72-19.36,3.77-24.08-3.81.2-.82.4-2.07-.49-2.62-.49-.31-1.29-.2-1.82-.21-5.87-7.46-4.56-16.54,2.78-21.99,21.91-16.24,40.26-23.46,57.87-41.52,1.85-1.89,5.57-3.44,7.92-2.01s10.67-.55,9.65-3.75c-8.77-27.38-1.77-55.61,20.93-74.05,31.45-25.55,84.37-23.97,106.86,16.67,7.14,12.9,8.48,27.93,4.82,42.47-5.79,23.05-23.73,39.95-46.07,47.33-25.83,8.54-53.29,3.94-73.61-14.19-8.73,10.69-18.14,18.92-27.66,27.27ZM192.52,89.9c10.56-13.65,13.89-31.38,10.05-47.81-4.02-17.21-17.96-29.41-35.31-33.11-22.45-4.79-45.72,1.77-62.59,17.58-19.57,18.35-25.15,49.62-9.15,71.71,22.05,30.44,75.56,19.36,97-8.37ZM200.02,92.8c4.13-7.69,9.28-14.1,8.1-23.24-3.56,14.03-11.76,25.15-22.41,36.06,7.39-1.02,9.29-8.34,14.31-12.82ZM91.54,105.23c-2.73-3.37-4.15-5.52-5.78-8.52-3.22,1.22-5.47,2.67-7.39,4.68,2.76,3.16,4.09,5.91,6.29,9.24,2.55-1.21,4.9-2.32,6.88-5.4ZM183.86,107.67c-4.4.47-7.02,2.72-10.09,5.13,4.18-.04,7.6-1.58,10.09-5.13Z" fill="#323332"/><path d="M67.19,136.51c-9.36,8.21-17.89,16.12-27.49,22.55-3.12.57-7.04-.05-7.36-3.67,2.04-1.08,4.93-4.19,3.49-6.82-.9-1.65-2.78-4.71.07-4.73,2.09-.01,2.83,3.53,5,4.35l9.53-7.47c-.8-2.88-3.07-4.36-2.56-6.97,2.7-1.51,3.87,2.66,5.84,4.07,4-2.02,9.06-5.5,10.8-9.63,2.09,2.32,1.1,5.76,2.69,8.33Z" fill="#363534"/><path d="M6,163.12c-1.13-.41-2.59-1.21-2.32-2.84.54.01,1.33-.09,1.82.21.89.55.69,1.8.49,2.62Z" fill="#363534"/><path d="M67.07,125.62c-.64.69-1.37,1.81-2.51,1.83-1.8-.34-3.17-1.52-3.81-3.37-.57-1.65-1-3.58,1.36-5.11,2.83,1.56,4.13,4.15,4.96,6.65Z" fill="#363534"/><path d="M11.47,156.85c1.17,1,1.61,2.94,3.29,3.46-3.48,1.99-6.94-2.31-7.95-6.11,1.97.43,3.41,1.58,4.66,2.65Z" fill="#323332"/><path d="M13.52,156.53c1.22.92,3.29,1.82,3.71,3.59-.62.12-1.93-.13-2.48.19-1.68-.52-2.12-2.46-3.29-3.46l2.05-.32Z" fill="#323332"/><path d="M178.83,29.86c.68.36,1.94-.1,2.27.88.21.62.42,1.19.44,1.76,13.84,18.59,5.5,46.38-12.63,58.38-18.14,12.01-49.65,15.6-60.59-3.12-9.14-15.63-5.68-37.37,8.43-47.86l4.38,6.04c10.07-2.59,21.14-3.19,30.7,1.16,17.18,7.81,4.62,21.14,12.22,25.08-4.92,6.28-11.04,10.29-18.27,15.12,3.98,4.6,10.67,2.03,14.19-1.75,12.25-13.18,15.54-17.47,15.06-33.96-.21-7.24-5.45-6.42-9.38-8.95-5.09-3.27-7.46-11.55-14.43-13.88-2.14-.71-5.1-1.4-4.88-3.78,12.11-1.51,22.62-.35,32.5,4.89Z" fill="#d9f2f9"/><path d="M178.83,29.86c-9.88-5.24-20.39-6.4-32.5-4.89-10.95,1.37-21.93,5.48-29.59,14.93-14.11,10.49-17.56,32.23-8.43,47.86,10.94,18.72,42.46,15.12,60.59,3.12,18.13-12,26.47-39.8,12.63-58.38,1.87-.69,3.6.2,4.9,2.27,9.77,15.59,7.89,35.33-4.16,49.74-20.74,24.81-61.53,27.49-77.18,5.62-6.76-9.45-8.18-22.06-4.72-33.46,9.51-31.32,45.53-46.14,74.65-32.17,2.64,1.26,4.14,3.08,3.8,5.36Z" fill="#323332"/><path d="M146.33,24.97c-.22,2.39,2.74,3.07,4.88,3.78,6.97,2.33,9.34,10.61,14.43,13.88,3.93,2.53,9.16,1.71,9.38,8.95.48,16.5-2.81,20.79-15.06,33.96-3.52,3.78-10.21,6.35-14.19,1.75,7.23-4.83,13.35-8.84,18.27-15.12-7.6-3.93,4.95-17.27-12.22-25.08-9.56-4.35-20.63-3.75-30.7-1.16l-4.38-6.04c7.66-9.45,18.64-13.56,29.59-14.93Z" fill="#c8dde9"/></svg>